<?xml version="1.0" encoding="UTF-8"?>
<svg xmlns="http://www.w3.org/2000/svg" version="1.1" width="512px" height="512px" style="shape-rendering:geometricPrecision; text-rendering:geometricPrecision; image-rendering:optimizeQuality; fill-rule:evenodd; clip-rule:evenodd" xmlns:xlink="http://www.w3.org/1999/xlink">
<g><path style="opacity:1" fill="#209cee" d="M 40.5,-0.5 C 183.833,-0.5 327.167,-0.5 470.5,-0.5C 491.833,5.5 505.5,19.1667 511.5,40.5C 511.5,183.833 511.5,327.167 511.5,470.5C 505.5,491.833 491.833,505.5 470.5,511.5C 327.167,511.5 183.833,511.5 40.5,511.5C 19.1667,505.5 5.5,491.833 -0.5,470.5C -0.5,327.167 -0.5,183.833 -0.5,40.5C 5.5,19.1667 19.1667,5.5 40.5,-0.5 Z"/></g>
<g><path style="opacity:1" fill="#fefefe" d="M 210.5,144.5 C 210.334,149.511 210.501,154.511 211,159.5C 211.513,158.473 212.013,157.473 212.5,156.5C 224.01,135.486 239.01,117.32 257.5,102C 276.951,89.1398 298.284,84.4731 321.5,88C 353.057,90.851 373.557,107.351 383,137.5C 387.176,151.546 388.51,165.879 387,180.5C 384.472,207.281 378.472,233.281 369,258.5C 360.055,281.39 351.389,304.39 343,327.5C 339.352,340.014 339.686,352.347 344,364.5C 346.602,368.212 350.102,369.378 354.5,368C 365.285,362.548 374.952,355.548 383.5,347C 393.203,336.965 402.537,326.632 411.5,316C 419.05,312.86 423.55,315.36 425,323.5C 425.944,339.724 421.611,354.391 412,367.5C 394.809,391.02 372.309,407.186 344.5,416C 329.38,419.636 314.38,419.303 299.5,415C 287.797,407.784 280.964,397.284 279,383.5C 277.797,359.185 281.13,335.518 289,312.5C 298.597,281.044 308.597,249.71 319,218.5C 324.635,201.386 325.635,184.052 322,166.5C 315.383,149.608 303.217,143.441 285.5,148C 271.648,154.022 259.815,162.855 250,174.5C 231.609,197.603 217.609,223.27 208,251.5C 198.672,275.481 191.838,300.147 187.5,325.5C 191.196,342.511 193.863,359.678 195.5,377C 197.034,392.591 191.368,404.591 178.5,413C 170.95,416.608 163.283,419.942 155.5,423C 144.322,427.148 135.489,424.315 129,414.5C 126.711,408.676 125.044,402.676 124,396.5C 123.529,363.593 126.196,330.927 132,298.5C 138.364,259.712 145.364,221.046 153,182.5C 154.453,172.874 154.786,163.207 154,153.5C 153.077,146.153 149.91,139.986 144.5,135C 138.325,132.744 132.325,133.077 126.5,136C 118.778,142.055 110.778,147.722 102.5,153C 90.2525,158.079 84.9192,154.079 86.5,141C 87.0041,127.658 92.3374,116.658 102.5,108C 126.995,88.3785 154.329,83.0452 184.5,92C 196.734,98.2437 204.568,108.077 208,121.5C 209.708,129.077 210.541,136.743 210.5,144.5 Z"/></g>
<g><path style="opacity:1" fill="#58b5f2" d="M 210.5,144.5 C 211.167,148.5 211.833,152.5 212.5,156.5C 212.013,157.473 211.513,158.473 211,159.5C 210.501,154.511 210.334,149.511 210.5,144.5 Z"/></g>
</svg>
